<?xml version="1.0" encoding="UTF-8" standalone="no"?>
<!-- Created with Inkscape (http://www.inkscape.org/) -->

<svg
   width="156.06145mm"
   height="131.10294mm"
   viewBox="0 0 156.06145 131.10294"
   version="1.1"
   id="svg5"
   xml:space="preserve"
   inkscape:export-filename="bitmap.svg"
   inkscape:export-xdpi="96"
   inkscape:export-ydpi="96"
   xmlns:inkscape="http://www.inkscape.org/namespaces/inkscape"
   xmlns:sodipodi="http://sodipodi.sourceforge.net/DTD/sodipodi-0.dtd"
   xmlns:xlink="http://www.w3.org/1999/xlink"
   xmlns="http://www.w3.org/2000/svg"
   xmlns:svg="http://www.w3.org/2000/svg"><sodipodi:namedview
     id="namedview7"
     pagecolor="#ffffff"
     bordercolor="#000000"
     borderopacity="0.25"
     inkscape:showpageshadow="2"
     inkscape:pageopacity="1"
     inkscape:pagecheckerboard="0"
     inkscape:deskcolor="#d1d1d1"
     inkscape:document-units="mm"
     showgrid="false" /><defs
     id="defs2"><linearGradient
       inkscape:collect="always"
       id="linearGradient989"><stop
         style="stop-color:#b60b7f;stop-opacity:1;"
         offset="0"
         id="stop985" /><stop
         style="stop-color:#c20c12;stop-opacity:0;"
         offset="1"
         id="stop987" /></linearGradient><clipPath
       clipPathUnits="userSpaceOnUse"
       id="clipPath404"><rect
         style="opacity:0.989172;fill:#fdfdfd;stroke-width:0.287999"
         id="rect406"
         width="89.782776"
         height="75.424042"
         x="98.991783"
         y="16.044958" /></clipPath><linearGradient
       inkscape:collect="always"
       xlink:href="#linearGradient989"
       id="linearGradient991"
       x1="212.76108"
       y1="19.309179"
       x2="51.320198"
       y2="79.128288"
       gradientUnits="userSpaceOnUse" /></defs><g
     inkscape:label="Layer 1"
     inkscape:groupmode="layer"
     id="layer1"
     transform="translate(-24.160036,-29.871621)"><path
       style="fill:url(#linearGradient991);fill-opacity:1;stroke-width:0.173035"
       d="M 14.051643,93.13201 V 4.5376325 h 88.594407 88.5944 l -0.003,88.3624545 c -0.001,64.373743 -0.0543,88.425163 -0.19394,88.593383 -0.15942,0.1921 -15.09574,0.2311 -88.59204,0.23194 l -88.400333,9.8e-4 z m 3.54716,85.24392 c 0.341527,-0.52123 0.169139,-0.97607 -0.36995,-0.97607 -0.534783,0 -0.741988,0.49304 -0.332914,0.79218 0.167748,0.12256 0.253668,0.30607 0.190944,0.40755 -0.235955,0.3818 0.256076,0.16677 0.511928,-0.22366 z m -0.519042,-0.45696 c -0.05882,-0.0952 0.01901,-0.1731 0.173042,-0.1731 0.153994,0 0.231854,0.0779 0.173042,0.1731 -0.05882,0.0952 -0.136684,0.1731 -0.173042,0.1731 -0.03636,0 -0.114217,-0.0779 -0.173042,-0.1731 z m 1.60085,0.74594 c -0.26878,-0.0703 -0.273605,-0.10814 -0.04326,-0.33833 0.528141,-0.52817 0.117561,-1.13258 -0.562639,-0.82826 -0.265628,0.11872 -0.255005,0.14387 0.08651,0.20355 0.48182,0.0842 0.498645,0.3189 0.04326,0.6033 -0.503642,0.31453 -0.424814,0.48175 0.216293,0.45889 0.309301,-0.0106 0.426223,-0.0557 0.25983,-0.0992 z m 1.3047,-0.097 c 0.06343,-0.1731 0.12515,-0.1731 0.30858,0 0.273297,0.25783 1.025234,0.28956 1.025234,0.0434 0,-0.25033 0.647059,-0.21306 0.751066,0.0434 0.146535,0.36113 0.419795,-0.17656 0.329578,-0.64845 -0.142222,-0.74395 -0.896789,-0.68421 -0.904959,0.0718 -0.0037,0.34606 -0.257312,0.0529 -0.259997,-0.3006 -0.0015,-0.19396 -0.145963,-0.2906 -0.434794,-0.2906 -0.310818,0 -0.432795,0.0933 -0.433323,0.3319 -3.99e-4,0.1825 -0.09773,0.36421 -0.216293,0.40373 -0.126075,0.042 -0.215561,-0.0779 -0.215561,-0.28863 0,-0.19825 -0.03256,-0.3605 -0.07237,-0.3605 -0.0398,0 -0.186245,-0.0438 -0.325449,-0.097 -0.170263,-0.0654 -0.313506,0.0761 -0.43774,0.43259 -0.164826,0.47284 -0.148456,0.52971 0.152422,0.52971 0.185386,0 0.337069,0.0779 0.337069,0.17311 0,0.2472 0.30212,0.21426 0.396539,-0.0434 z m 1.86658,-0.57678 c 0.0083,-0.20151 0.04929,-0.24259 0.104538,-0.10458 0.04999,0.12481 0.04384,0.27417 -0.0137,0.33165 -0.05748,0.0574 -0.0984,-0.0448 -0.09088,-0.22709 z m 1.860037,0.39148 c 0.03867,-0.20375 -0.0678,-0.34846 -0.30133,-0.40952 -0.198609,-0.052 -0.361123,-0.17147 -0.361123,-0.26579 0,-0.0943 0.114309,-0.12758 0.254013,-0.074 0.139709,0.0535 0.300033,0.0231 0.356282,-0.0681 0.05655,-0.0916 -0.134354,-0.16556 -0.427046,-0.16556 -0.455041,0 -0.529318,0.0633 -0.529318,0.45111 0,0.32551 0.07072,0.42397 0.254012,0.35362 0.13971,-0.0536 0.300033,-0.0231 0.356283,0.0681 0.05624,0.091 -0.05807,0.16555 -0.254013,0.16555 -0.195952,0 -0.356282,0.083 -0.356282,0.18454 0,0.32455 0.944025,0.1 1.008522,-0.24003 z m 1.206329,0.19395 c 0.161495,-0.16146 0.207642,-0.16146 0.207642,0 0,0.30396 0.858275,0.25393 0.97759,-0.057 0.08952,-0.23325 0.126116,-0.23104 0.308818,0.0184 0.113992,0.15595 0.357852,0.25446 0.541902,0.21901 0.254205,-0.049 0.334633,-0.20887 0.334633,-0.66533 0,-0.75749 -0.511852,-0.92918 -0.967841,-0.32466 -0.278003,0.36856 -0.302001,0.37396 -0.274045,0.0615 0.02277,-0.25445 -0.09164,-0.35649 -0.445208,-0.39719 -0.405559,-0.0465 -0.475849,0.008 -0.475849,0.37305 0,0.3941 -0.03397,0.41206 -0.431238,0.22779 -0.23718,-0.10999 -0.431845,-0.26303 -0.432586,-0.34 -7.45e-4,-0.0771 0.06076,-0.10154 0.136684,-0.0547 0.07593,0.0471 0.251118,0.0143 0.389329,-0.0736 0.182913,-0.11568 0.09826,-0.15961 -0.311075,-0.16166 -0.49133,-0.003 -0.562364,0.0543 -0.562364,0.44845 0,0.32553 0.07072,0.42398 0.254011,0.35363 0.139708,-0.0536 0.300035,-0.0231 0.356281,0.0681 0.05624,0.091 -0.05807,0.16554 -0.25401,0.16554 -0.195951,0 -0.356282,0.0779 -0.356282,0.17311 0,0.2424 0.752544,0.21645 1.003603,-0.0345 z m 1.764959,-0.48451 c 0,-0.19027 0.07787,-0.34606 0.173042,-0.34606 0.09518,0 0.173042,0.15573 0.173042,0.34606 0,0.19028 -0.07786,0.34608 -0.173042,0.34608 -0.09518,0 -0.173042,-0.15573 -0.173042,-0.34608 z m 46.415575,-21.45977 c 0.54657,-0.10259 1.442029,-0.34165 1.989894,-0.53114 0.547866,-0.18946 1.07397,-0.36574 1.169148,-0.39162 0.281991,-0.0767 2.76097,-1.35789 2.855091,-1.47561 0.04759,-0.0595 0.514773,-0.39223 1.038206,-0.73936 0.52342,-0.34714 1.360284,-1.03298 1.859668,-1.52406 0.535226,-0.52632 0.990201,-0.8421 1.108211,-0.76916 0.12441,0.0771 0.153272,0.0479 0.07629,-0.0771 -0.06968,-0.11278 0.13488,-0.52216 0.467799,-0.93516 0.638297,-0.79211 1.615581,-2.31987 2.019443,-3.15694 0.13775,-0.28551 0.333989,-0.63591 0.436069,-0.77867 0.102198,-0.14285 0.370691,-0.82408 0.596876,-1.51407 0.370928,-1.13146 0.45553,-1.25449 0.862512,-1.25449 0.592539,0 2.072605,-0.54753 3.087027,-1.14204 1.15791,-0.67857 2.32912,-1.97198 3.00474,-3.31821 l 0.583853,-1.16341 v -3.28767 c 0,-3.20461 -0.0119,-3.31267 -0.463886,-4.27714 -0.536826,-1.14498 -0.623741,-1.26351 -1.796828,-2.44997 -0.943967,-0.95475 -2.265354,-1.70193 -3.579232,-2.02389 -0.452053,-0.11079 -0.827688,-0.25055 -0.834762,-0.31064 -0.258642,-2.19719 -1.705642,-5.76894 -3.233833,-7.98233 -1.599081,-2.31603 -4.532044,-4.74341 -7.24719,-5.99789 -2.992458,-1.3826 -5.428231,-1.78448 -10.832716,-1.78723 l -2.89835,-10e-4 v -2.486 -2.48602 l 0.735413,-0.48281 c 1.476898,-0.96962 2.048548,-1.94878 2.056071,-3.52179 0.0066,-1.436168 -0.303594,-2.295005 -1.148311,-3.176543 -1.589404,-1.658668 -4.40357,-1.675525 -6.023875,-0.03623 -0.268076,0.271242 -0.688674,0.918609 -0.934677,1.438644 -0.418105,0.883785 -0.435619,1.020789 -0.268504,2.100479 0.221826,1.43314 0.825684,2.39141 1.969373,3.12531 l 0.845958,0.54285 v 2.46717 2.46716 l -4.282623,0.0962 c -3.84402,0.0862 -4.466823,0.14225 -6.081202,0.54628 -0.989224,0.24754 -2.457557,0.7589 -3.262989,1.13633 -1.305141,0.61161 -3.266573,1.81755 -3.777709,2.32266 -0.103203,0.10193 -0.595247,0.53589 -1.093321,0.96414 -2.718405,2.3374 -4.763425,6.11587 -5.631118,10.40433 -0.07511,0.37121 -0.239138,0.49187 -0.892355,0.65634 -2.556004,0.64362 -4.762273,2.66598 -5.616249,5.14811 -0.421867,1.22617 -0.59505,3.94819 -0.357817,5.62399 0.233655,1.65051 0.776289,2.89235 1.799426,4.11803 0.434869,0.52096 0.74589,1.01966 0.691162,1.10821 -0.05474,0.0884 -0.0063,0.10339 0.107751,0.0329 0.117006,-0.0723 0.448888,0.0551 0.762136,0.29257 0.64375,0.48803 2.137117,1.07155 3.19137,1.24701 0.691495,0.11502 0.746703,0.16778 0.972805,0.92909 0.603965,2.03356 2.244327,4.91861 3.668786,6.45263 2.608732,2.80936 5.356854,4.53041 8.987242,5.62841 l 1.557318,0.47103 9.084352,0.0973 c 8.846051,0.0947 10.617402,0.0475 12.67368,-0.33877 z M 51.859863,148.3306 c -3.182834,-0.65481 -6.174519,-2.81715 -7.863002,-5.68323 -1.40935,-2.39229 -1.478685,-2.77867 -1.479868,-8.24675 l -10e-4,-4.845 0.486729,-1.41754 c 1.349234,-3.92947 4.483244,-6.78068 8.511116,-7.74306 1.073016,-0.25639 2.326944,-0.28334 10.987733,-0.23636 l 9.776498,0.0531 1.295726,0.47972 c 1.930267,0.71463 3.050523,1.44358 4.587466,2.9851 1.604502,1.60928 2.51038,3.16259 3.030613,5.19667 0.295252,1.15445 0.343575,1.91969 0.343575,5.44089 0,3.54276 -0.0472,4.28226 -0.349048,5.46226 -0.923276,3.60992 -3.899207,6.81352 -7.563702,8.14231 l -1.344643,0.48756 -9.863015,0.0333 c -5.424657,0.0184 -10.174475,-0.0307 -10.555139,-0.10894 z m 5.218567,-3.5046 c 0.290045,-0.21414 1.209086,-1.01226 2.042313,-1.77363 0.833227,-0.76134 1.603853,-1.44147 1.712477,-1.5114 0.108729,-0.0699 2.160707,-0.12837 4.560166,-0.12983 5.201583,-0.004 5.758597,-0.12956 7.230175,-1.64049 1.397752,-1.43513 1.473178,-1.80461 1.472173,-7.21035 -6.87e-4,-3.33097 -0.06134,-4.74627 -0.219164,-5.10453 -0.433742,-0.98486 -1.185343,-1.97839 -1.873973,-2.47722 -1.486848,-1.07709 -1.346772,-1.06333 -10.279723,-1.00929 l -8.132672,0.0493 -0.778658,0.40443 c -1.053173,0.54703 -1.842274,1.32605 -2.394672,2.36414 l -0.460411,0.86517 v 5.01802 5.01804 l 0.513608,0.92726 c 0.282463,0.50998 0.821353,1.19069 1.19752,1.51265 0.817837,0.70007 2.280347,1.28034 3.226876,1.28034 h 0.68565 v 1.58695 c 0,1.23386 0.06377,1.65735 0.286366,1.90338 0.372019,0.41107 0.572774,0.399 1.211949,-0.073 z m 0.188636,-2.49776 c -0.04272,-0.0775 -0.09401,-0.56691 -0.114045,-1.08738 -0.02044,-0.5205 -0.119147,-1.0461 -0.220231,-1.16799 -0.111387,-0.13427 -0.601999,-0.22465 -1.244219,-0.22925 -1.885274,-0.0143 -3.067078,-0.67713 -3.821723,-2.14605 -0.433555,-0.84391 -0.439707,-0.91172 -0.438746,-4.845 5.1e-4,-2.33885 0.07889,-4.26942 0.189045,-4.66671 0.260144,-0.93697 0.797051,-1.61107 1.713315,-2.1511 l 0.778658,-0.45894 h 7.873098 c 7.823932,0 7.877663,0.003 8.598499,0.38773 0.907596,0.48513 1.526564,1.28483 1.78243,2.3029 0.129302,0.51443 0.178828,2.19366 0.142866,4.845 -0.0591,4.35812 -0.08951,4.51817 -1.052088,5.55505 -0.984675,1.06062 -1.164745,1.09331 -6.342887,1.15184 -5.281331,0.0596 -4.76339,-0.0535 -6.332582,1.38555 -1.186013,1.08771 -1.431178,1.27009 -1.511435,1.12435 z m 0.173103,-8.62923 c 0.861265,-0.97873 0.30106,-2.39523 -1.032899,-2.61171 -0.812155,-0.13181 -1.705527,0.61422 -1.728929,1.44378 -0.04374,1.54717 1.757746,2.30895 2.761828,1.16793 z m 5.593712,0.10934 c 0.734065,-0.73407 0.714547,-1.7103 -0.047,-2.35108 -0.444733,-0.37424 -0.669442,-0.44621 -1.149552,-0.3683 -1.587994,0.25769 -1.973604,2.20243 -0.586018,2.95545 0.716162,0.38865 1.225253,0.32123 1.782557,-0.23607 z m 5.486301,0.23574 c 0.549836,-0.38513 0.930601,-1.20228 0.800956,-1.71888 -0.05989,-0.23903 -0.349339,-0.63673 -0.642978,-0.88385 -0.426245,-0.35864 -0.654242,-0.42971 -1.130648,-0.35239 -1.588002,0.25769 -1.973632,2.20243 -0.586048,2.95545 0.614169,0.33329 1.08255,0.33318 1.558718,-3.6e-4 z m 86.036058,22.61122 c 2.59715,-0.67982 4.81316,-1.67001 6.69099,-2.98976 1.52227,-1.06983 3.61058,-3.11188 4.30623,-4.21082 0.18067,-0.28551 0.36932,-0.5581 0.41911,-0.60576 0.0498,-0.0476 0.21164,-0.32019 0.35972,-0.60562 0.14795,-0.28545 0.47322,-0.90831 0.72256,-1.38416 0.55423,-1.05752 0.90644,-1.87672 1.16265,-2.70404 0.18291,-0.59036 0.25466,-0.63951 1.20932,-0.82733 2.49682,-0.4912 4.66011,-2.24412 5.71636,-4.632 0.4914,-1.11088 0.75283,-3.20535 0.62722,-5.02514 -0.14837,-2.15104 -0.60689,-3.57204 -1.39092,-4.31159 -0.33899,-0.31971 -0.61632,-0.64558 -0.61632,-0.72415 0,-0.25423 -1.76533,-1.58709 -1.95051,-1.47264 -0.0988,0.0609 -0.12891,0.0292 -0.067,-0.0707 0.0617,-0.1 -0.0184,-0.23188 -0.17883,-0.29331 -0.2581,-0.0992 -0.49051,0.10101 -0.62198,0.53545 -0.0531,0.17535 -1.77919,1.78943 -1.91357,1.78943 -0.0621,0 -0.11304,-0.22387 -0.11304,-0.49748 0,-0.74706 -0.19722,-1.58446 -0.35073,-1.48956 -0.0746,0.046 -0.11449,0.53147 -0.0884,1.07866 0.0259,0.54719 0.0143,0.66396 -0.0259,0.25949 -0.0961,-0.96935 -0.40004,-0.94788 -0.40004,0.0282 v 0.76369 l -1.86013,-0.0164 c -1.02307,-0.0106 -1.56813,-0.0464 -1.21126,-0.082 0.47941,-0.0479 0.64888,-0.14429 0.64888,-0.36912 0,-0.35436 0.74923,-1.05897 1.12606,-1.05897 0.18598,0 0.25824,0.19374 0.25824,0.69214 0,0.62292 0.0434,0.69215 0.43257,0.69215 0.38933,0 0.4326,-0.0693 0.4326,-0.69215 0,-0.62293 -0.0434,-0.69214 -0.4326,-0.69214 -0.38804,0 -0.43257,-0.0701 -0.43257,-0.68009 0,-0.57358 0.0609,-0.68878 0.38932,-0.73542 0.2773,-0.0394 0.38537,-0.16738 0.37558,-0.44461 -0.008,-0.21414 0.0582,-0.38933 0.14592,-0.38933 0.0879,0 0.12481,0.36986 0.0821,0.82189 -0.0427,0.45208 -0.0448,0.64675 -0.004,0.43261 0.0401,-0.21413 0.14306,-0.38933 0.22887,-0.38933 0.0858,0 0.11132,-0.11688 0.0565,-0.25956 -0.0547,-0.14265 -0.0143,-0.25955 0.092,-0.25955 0.10524,0 0.19149,-0.12137 0.19149,-0.26976 0,-0.14838 -0.0715,-0.22555 -0.15899,-0.17148 -0.0875,0.0539 -0.21744,-0.15552 -0.28888,-0.46564 -0.12798,-0.55523 -0.13181,-0.55724 -0.25964,-0.13116 -0.0731,0.2438 -0.092,-0.0206 -0.0431,-0.60561 0.0573,-0.68641 0.0304,-0.95867 -0.0789,-0.80346 -0.10709,0.15206 -0.20455,0.17148 -0.27637,0.0551 -0.0611,-0.0988 -0.0319,-0.22848 0.0651,-0.28825 0.7458,-0.46094 -1.00527,-4.42335 -2.86395,-6.48071 -0.34882,-0.3861 -0.53308,-0.702 -0.40948,-0.702 0.12362,0 -0.23721,-0.43551 -0.8018,-0.96782 -2.64717,-2.49587 -5.11166,-3.83642 -8.72657,-4.74678 -1.23196,-0.31023 -2.16625,-0.38575 -5.75342,-0.46502 l -4.28261,-0.0947 v -2.5308 -2.53078 l 0.49957,-0.22113 c 1.40671,-0.62268 2.2995,-2.12014 2.2995,-3.85689 0,-1.021942 -0.0748,-1.304144 -0.56263,-2.119563 -0.6604,-1.104166 -1.56656,-1.749233 -2.86548,-2.039923 -0.79834,-0.178629 -1.07134,-0.164113 -1.95703,0.104049 -1.93898,0.587079 -2.99664,2.024243 -2.99984,4.076287 -0.003,1.71234 0.55554,2.70683 2.08194,3.70893 l 0.7354,0.48281 v 2.46086 2.46087 l -4.19612,0.0969 c -5.20392,0.12018 -6.56804,0.37133 -9.58483,1.76519 -0.69873,0.32283 -1.83384,0.96219 -2.52248,1.42077 -1.4156,0.94271 -3.46096,2.79467 -3.3266,3.01207 0.0488,0.0791 -0.17372,0.43884 -0.49468,0.79959 -0.73048,0.8211 -1.22817,1.80374 -0.98858,1.95182 0.0962,0.0595 0.20336,0.35149 0.23797,0.64891 0.0345,0.29741 0.19047,0.66839 0.34657,0.82438 0.15595,0.15593 0.28362,0.38886 0.28362,0.51751 0,0.12878 0.19456,0.46528 0.43259,0.74802 0.23791,0.28277 0.43258,0.63264 0.43258,0.77752 0,0.1449 0.0973,0.2992 0.2163,0.34294 0.16432,0.0606 0.14593,0.20854 -0.0767,0.61694 -0.27137,0.49779 -0.27198,0.54919 -0.008,0.69683 0.25087,0.14039 0.25486,0.19558 0.0336,0.464 -0.23185,0.28099 -0.22202,0.289 0.12653,0.10326 0.55962,-0.29816 0.66527,-0.24444 0.22323,0.11344 -0.54563,0.44183 -0.55037,1.69318 -0.008,2.13231 0.41986,0.33999 1.2968,0.27851 1.72431,-0.12084 0.20539,-0.19191 0.19885,-0.26727 -0.0438,-0.50994 -0.25678,-0.25676 -0.29505,-0.25799 -0.38929,-0.0119 -0.0574,0.1498 -0.20625,0.27241 -0.33055,0.27241 -0.40811,0 0.10643,-1.00484 0.57479,-1.12237 0.32625,-0.082 0.39519,-0.1866 0.31782,-0.48241 -0.0633,-0.24254 0.0857,-0.70443 0.41594,-1.28991 0.28312,-0.50166 0.46653,-0.91208 0.40759,-0.91208 -0.0588,0 0.0582,-0.13632 0.26046,-0.30281 0.20213,-0.16657 0.43783,-0.55185 0.52362,-0.85622 0.13449,-0.47692 0.0951,-0.61447 -0.28552,-0.99497 -0.24285,-0.24286 -0.51338,-0.44155 -0.60121,-0.44155 -0.0879,0 -0.11687,-0.0691 -0.0648,-0.15348 0.0521,-0.0844 -0.0376,-0.14285 -0.19947,-0.12983 -0.16186,0.0119 -0.32247,-0.11264 -0.3569,-0.27909 -0.0734,-0.35557 0.46802,-0.42051 0.79338,-0.0952 0.16145,0.16146 0.20764,0.15921 0.20764,-0.0106 0,-0.11978 0.0584,-0.1819 0.12983,-0.13775 0.0713,0.0442 0.14102,-0.10775 0.15471,-0.33714 0.0274,-0.45629 -0.10458,-0.51082 -1.56245,-0.64546 -0.52248,-0.0483 -0.75374,-0.0205 -0.60561,0.0738 0.13181,0.0834 0.20069,0.15901 0.15307,0.16759 -0.0476,0.008 -0.21332,0.0407 -0.36831,0.0707 -0.20335,0.0397 -0.25749,-0.0381 -0.19457,-0.2785 0.048,-0.18332 -0.0491,-0.48395 -0.21572,-0.66805 -0.18393,-0.20315 -0.26478,-0.48038 -0.2059,-0.70558 0.0705,-0.26949 0.007,-0.39468 -0.23593,-0.45795 -0.83069,-0.21724 0.0352,-0.34916 2.4707,-0.37644 l 2.64309,-0.0296 0.40198,0.71125 c 0.22109,0.39121 0.58857,1.20707 0.81667,1.81304 0.40372,1.07261 0.40582,1.10455 0.0799,1.208 -0.37976,0.12058 -0.62078,1.04536 -0.44989,1.72631 0.14694,0.58577 1.01836,1.01753 1.76924,0.87668 0.75701,-0.14204 1.13084,-0.71414 1.07583,-1.64646 -0.0349,-0.59275 -0.12877,-0.76818 -0.51858,-0.96975 -0.26174,-0.1353 -0.61487,-0.24611 -0.78475,-0.24611 -0.73896,0 1.19112,-0.76732 2.45462,-0.97585 2.36564,-0.39043 2.16294,-0.56299 2.16294,1.84105 0,1.96104 0.0184,2.07641 0.34606,2.07641 0.28376,0 0.34609,-0.11542 0.34609,-0.64074 v -0.64075 l 0.65617,0.64075 c 0.58576,0.57198 1.42024,0.86742 1.42024,0.50282 0,-0.0758 -0.30863,-0.43931 -0.68587,-0.80765 l -0.68588,-0.66975 0.68588,-0.52713 c 0.37724,-0.28992 0.68587,-0.58835 0.68587,-0.66315 0,-0.32521 -1.12733,-0.11529 -1.54785,0.28816 l -0.44206,0.42416 0.0587,-1.02977 0.0587,-1.02979 h 5.67629 c 6.20553,0 5.88326,0.0551 5.8887,-1.0091 10e-4,-0.25394 0.0493,-0.6369 0.1067,-0.85104 l 0.10444,-0.38932 3.91637,0.0143 c 2.15401,0.008 3.81022,0.0558 3.68051,0.10748 -0.19907,0.0791 -0.19907,0.11714 0,0.24325 0.16042,0.10153 0.16921,0.15021 0.0276,0.15205 -0.20925,0.003 0.21432,1.00391 0.52022,1.22962 0.0764,0.0564 0.12626,0.17331 0.11092,0.25967 -0.0143,0.0865 0.0284,0.33164 0.097,0.54487 0.10141,0.31428 0.21134,0.3674 0.58109,0.28061 0.25085,-0.0588 0.49504,-0.10629 0.54261,-0.10523 0.39483,0.008 0.52576,0.065 0.44552,0.19477 -0.0517,0.0836 0.11899,0.36946 0.37911,0.63508 0.31551,0.32205 0.37227,0.44613 0.17024,0.37241 -0.16656,-0.061 -0.30282,-0.0352 -0.30282,0.057 0,0.0922 0.0734,0.16759 0.16308,0.16759 0.26523,0 2.84256,2.64865 3.12064,3.20698 0.1406,0.28231 0.44064,0.81646 0.66676,1.18704 0.52836,0.86587 1.03018,2.30535 1.31843,3.7819 0.22414,1.14826 0.22175,1.16798 -0.14123,1.16798 -0.36807,0 -0.36924,0.0143 -0.36924,4.80173 0,4.60704 -0.0164,4.85083 -0.41289,6.01297 -0.54196,1.58978 -1.53697,3.2862 -2.62711,4.47897 -1.55253,1.69873 -4.19409,3.15981 -6.47512,3.58147 -0.59036,0.10907 -4.57701,0.15369 -10.59667,0.11833 l -9.65027,-0.0566 -1.34464,-0.48737 c -3.38721,-1.22767 -6.01325,-3.8398 -7.37238,-7.33326 -0.4522,-1.16228 -0.45385,-1.18462 -0.45385,-6.14125 v -4.97471 l -1.94403,-5e-5 -1.94403,-5e-5 -0.0457,-5.06129 -0.0457,-5.06128 -0.64305,1.29778 c -0.63942,1.29046 -1.57848,4.38266 -1.3886,4.57251 0.0546,0.0547 0.004,0.0996 -0.11264,0.0996 -0.11674,0 -0.17004,0.0681 -0.11859,0.15143 0.0514,0.0834 -0.27487,0.24766 -0.7252,0.36527 -2.14368,0.55986 -4.21012,2.16415 -5.15039,3.99847 -0.16615,0.32415 -0.34965,0.62832 -0.40775,0.6759 -0.058,0.0476 -0.12613,0.28117 -0.15124,0.51911 -0.0251,0.23792 -0.1357,1.16194 -0.24557,2.05334 -0.55125,4.46997 0.88861,7.77031 4.14755,9.50657 1.12761,0.60078 1.46409,0.71634 2.46855,0.84792 0.59043,0.0772 0.63132,0.12956 1.03389,1.32013 0.81579,2.41255 2.40783,4.90231 4.4305,6.92881 1.08417,1.0862 2.70043,2.35693 2.99788,2.35693 0.0993,0 0.18047,0.0664 0.18047,0.14756 0,0.23418 3.62595,1.87218 4.85494,2.19319 2.32142,0.60633 4.30846,0.69094 13.68595,0.58266 6.07075,-0.0701 9.31504,-0.17187 9.8369,-0.30836 z m -31.25462,-30.72769 c -0.0536,-0.13959 -0.064,-0.35374 -0.0231,-0.47585 0.0409,-0.12203 0.11529,-0.008 0.16534,0.25384 0.0978,0.51102 0.0164,0.63713 -0.14224,0.22201 z m 43.71316,-4.41812 c 0,-0.19026 0.0299,-0.34606 0.0662,-0.34606 0.0366,0 0.10709,0.15573 0.15676,0.34606 0.0498,0.19028 0.0205,0.34609 -0.0662,0.34609 -0.0862,0 -0.15674,-0.15573 -0.15674,-0.34609 z m -37.02165,-0.0771 c -0.11423,-0.13754 -0.18209,-0.4295 -0.15102,-0.64887 0.073,-0.51454 0.8057,-0.65038 1.12832,-0.20919 0.29046,0.39727 0.28453,0.50573 -0.046,0.83618 -0.33893,0.33893 -0.662,0.34651 -0.93143,0.0218 z m 0.42927,-0.58172 c -0.0534,-0.0533 -0.19293,-1.2e-4 -0.31028,0.11819 -0.16963,0.17086 -0.14981,0.19069 0.0969,0.0969 0.17066,-0.0649 0.26669,-0.16165 0.21343,-0.215 z m -5.52906,0.50615 c -0.0409,-0.066 0.11489,-0.1357 0.34588,-0.15491 0.23107,-0.0184 0.42012,-0.007 0.42012,0.0296 0,0.12851 -0.6938,0.24204 -0.766,0.12534 z m 0.074,-0.54978 c 0,-0.10075 0.0779,-0.1351 0.17311,-0.0763 0.0952,0.0588 0.1731,0.14123 0.1731,0.18332 0,0.0419 -0.0779,0.0763 -0.1731,0.0763 -0.0952,0 -0.17311,-0.0824 -0.17311,-0.18332 z m 14.80992,20.64467 c 0.71227,-0.9825 1.31828,-1.39959 2.45755,-1.69144 1.10521,-0.28314 2.14764,-0.1682 3.14267,0.34626 0.50749,0.26242 1.56533,1.37799 1.56533,1.65072 0,0.26757 0.80446,0.38802 1.19514,0.17883 1.0919,-0.58437 -0.2521,-2.62314 -2.38212,-3.61363 -1.32467,-0.61598 -3.48718,-0.64433 -4.76894,-0.0625 -1.16968,0.53093 -2.28897,1.48572 -2.71063,2.31225 -0.32683,0.64064 -0.33257,0.72188 -0.0785,1.10977 0.41445,0.63253 1.01761,0.54457 1.57941,-0.23034 z m -6.65637,-6.79164 c 0.40016,-0.38069 0.7733,-0.69084 0.82919,-0.68923 0.0558,10e-4 0.4073,0.31306 0.78092,0.69214 0.75846,0.76955 1.23616,0.85899 1.79708,0.3364 0.55437,-0.51646 0.46717,-1.05524 -0.31444,-1.94321 l -0.69314,-0.78744 0.69314,-0.74333 c 0.71294,-0.76455 0.82512,-1.14035 0.51401,-1.72169 -0.12838,-0.24001 -0.36359,-0.3347 -0.83122,-0.3347 -0.51811,0 -0.77276,0.12441 -1.23911,0.60561 -0.32285,0.33312 -0.64179,0.60564 -0.70878,0.60564 -0.067,0 -0.39432,-0.27252 -0.72741,-0.60564 -0.76029,-0.76026 -1.68578,-0.84631 -2.11166,-0.1964 -0.33415,0.50998 -0.16206,1.02775 0.58299,1.75371 0.29302,0.2855 0.53491,0.58826 0.53754,0.67279 0.003,0.0846 -0.30663,0.49158 -0.68732,0.90458 -0.80534,0.87371 -0.84663,1.13894 -0.26742,1.71817 0.59247,0.59245 1.00443,0.53279 1.84563,-0.26742 z m 18.7573,-0.0221 0.77479,-0.71419 0.7748,0.71419 c 0.8531,0.78636 1.24165,0.8718 1.82321,0.4009 0.58581,-0.47437 0.50025,-1.15554 -0.24039,-1.91403 -0.345,-0.35331 -0.62726,-0.71367 -0.62726,-0.80081 0,-0.0871 0.28226,-0.44752 0.62726,-0.80083 0.99729,-1.02132 0.78366,-2.05427 -0.42486,-2.05427 -0.48201,0 -0.76677,0.14286 -1.27658,0.64076 l -0.65618,0.64072 -0.65617,-0.64072 c -0.50436,-0.49249 -0.79664,-0.64076 -1.26315,-0.64076 -0.74843,0 -1.02228,0.25513 -1.02228,0.95237 0,0.38662 0.16964,0.7015 0.60563,1.12406 0.3331,0.32284 0.60563,0.67324 0.60563,0.77867 0,0.1055 -0.27253,0.4558 -0.60563,0.77865 -0.73801,0.71531 -0.83147,1.55253 -0.22106,1.9801 0.59387,0.41595 0.94291,0.32884 1.78224,-0.44481 z m -28.29514,-7.32177 c 0,-0.0419 -0.0779,-0.12441 -0.1731,-0.18333 -0.0952,-0.0588 -0.1731,-0.0246 -0.1731,0.0763 0,0.10074 0.0779,0.18332 0.1731,0.18332 0.0952,0 0.1731,-0.0344 0.1731,-0.0763 z m 2.07909,-0.91863 c 0.004,-0.56127 0.14611,-0.80631 0.55971,-0.9589 0.52933,-0.19538 0.3265,-0.46865 -0.3477,-0.46865 -0.47392,0 -0.71228,0.0989 -0.87796,0.36418 -0.12507,0.20028 -0.14859,0.31541 -0.0521,0.25581 0.0965,-0.0596 0.17453,0.0296 0.1733,0.19825 -0.001,0.24477 0.0785,0.70124 0.18272,1.04195 0.008,0.0239 0.0911,0.0434 0.18618,0.0434 0.0952,0 0.17433,-0.21411 0.17576,-0.47584 z m 2.73245,0.14674 c 0.0613,-0.1866 -0.042,-0.21819 -0.44739,-0.13714 -0.35642,0.0714 -0.59497,0.0237 -0.7365,-0.14674 -0.17821,-0.21473 -0.0906,-0.25219 0.59054,-0.25219 0.87541,0 0.93523,-0.0757 0.52366,-0.66338 -0.38563,-0.55057 -1.26122,-0.45952 -1.61151,0.16759 -0.22858,0.40919 -0.22363,0.50328 0.0483,0.91824 0.25073,0.3827 0.41064,0.45322 0.92801,0.40929 0.34394,-0.0292 0.66098,-0.16228 0.7049,-0.29565 z m -1.09126,-1.05519 c 0.0588,-0.0952 0.21455,-0.17312 0.34606,-0.17312 0.13154,0 0.28725,0.0779 0.34607,0.17312 0.061,0.0985 -0.0881,0.1731 -0.34607,0.1731 -0.25793,0 -0.40697,-0.0746 -0.34606,-0.1731 z m 3.46069,0.0649 c 0,-0.9059 -0.0627,-1.27644 -0.21628,-1.27637 -0.11899,7e-5 -0.21631,0.18129 -0.21631,0.40274 0,0.34387 -0.0718,0.39211 -0.49119,0.33054 -0.58756,-0.0862 -1.06613,0.32255 -1.06613,0.91068 0,0.62234 0.4345,0.94081 1.26045,0.92387 l 0.72946,-0.0143 v -1.27649 z m -1.25449,0.84681 c -0.11899,-0.0415 -0.21631,-0.25531 -0.21631,-0.47511 0,-0.41283 0.2714,-0.61498 0.64887,-0.48329 0.11899,0.0415 0.21631,0.25529 0.21631,0.47509 0,0.41284 -0.2714,0.61497 -0.64887,0.48331 z m 2.20619,-0.47922 c 0,-0.73059 -0.0603,-0.95168 -0.25954,-0.95168 -0.19927,0 -0.25956,0.22109 -0.25956,0.95168 0,0.73059 0.0603,0.9517 0.25956,0.9517 0.19925,0 0.25954,-0.22111 0.25954,-0.9517 z m 1.62198,0.69763 c -0.0536,-0.1398 -0.18741,-0.23709 -0.29738,-0.21631 -0.11,0.0209 -0.22351,-0.2051 -0.25242,-0.50196 -0.0423,-0.43452 0.0251,-0.56532 0.34609,-0.67085 l 0.3986,-0.13102 -0.38932,-0.0767 c -0.21414,-0.042 -0.38933,-0.18802 -0.38933,-0.32409 0,-0.13612 -0.11674,-0.24752 -0.25956,-0.24752 -0.14285,0 -0.25955,0.1104 -0.25955,0.24513 0,0.13488 -0.0973,0.29056 -0.21631,0.34606 -0.1731,0.0808 -0.1731,0.12124 0,0.20193 0.11899,0.0555 0.21631,0.35141 0.21631,0.65754 0,0.65467 0.26367,0.97187 0.80783,0.97187 0.27407,0 0.36313,-0.0767 0.29504,-0.25407 z m 0.80964,-0.007 c -0.0143,-0.25683 -0.40066,-0.20964 -0.49048,0.0596 -0.0484,0.14551 0.0307,0.21041 0.211,0.1731 0.1588,-0.0329 0.28452,-0.13775 0.27948,-0.23282 z m 3.34665,-0.12983 c 0.25452,-0.40631 -0.0276,-0.83881 -0.6861,-1.0516 -0.66037,-0.2134 -0.71952,-0.27747 -0.42452,-0.4598 0.1451,-0.0898 0.38026,-0.0793 0.57592,0.0255 0.22048,0.11793 0.38838,0.11938 0.50375,0.004 0.23925,-0.23926 -0.44796,-0.58752 -1.0232,-0.51858 -1.017,0.12203 -0.95102,1.12236 0.092,1.3926 0.30146,0.0781 0.5481,0.20934 0.5481,0.2916 0,0.25424 -0.52728,0.36744 -0.86633,0.18598 -0.43015,-0.2302 -0.51795,-0.21788 -0.51795,0.0727 0,0.32059 0.29788,0.43562 1.02068,0.39418 0.34383,-0.0204 0.66689,-0.1594 0.77777,-0.33649 z m 2.18135,-0.5843 c 0,-0.71109 -0.0611,-0.92976 -0.25956,-0.92976 -0.18618,0 -0.25955,0.19028 -0.25955,0.67361 0,0.43265 -0.091,0.70853 -0.25402,0.77113 -0.30745,0.11793 -0.35953,0.0368 -0.50975,-0.79585 -0.0644,-0.3569 -0.19149,-0.64889 -0.28227,-0.64889 -0.18087,0 -0.23198,1.60588 -0.0566,1.78128 0.0596,0.0596 0.44906,0.10181 0.86518,0.0933 l 0.75657,-0.0143 v -0.92976 z m 2.26567,0.46973 c 0.0613,-1.69365 0.0394,-1.98657 -0.15247,-2.05057 -0.12573,-0.0419 -0.20971,0.0974 -0.20971,0.34715 0,0.35967 -0.0677,0.40712 -0.4912,0.34493 -0.8536,-0.12533 -1.33097,0.6981 -0.88639,1.52884 0.14102,0.26347 0.34606,0.32955 0.9517,0.30663 0.70293,-0.0266 0.77341,-0.0693 0.78816,-0.47698 z m -1.18419,0.0315 c -0.30107,-0.1051 -0.27162,-0.85355 0.0382,-0.97244 0.13999,-0.0538 0.37028,0.0184 0.51174,0.15962 0.4137,0.41368 0.0106,1.00863 -0.54999,0.8129 z m 3.27403,0.18618 c 0.6844,-0.61939 0.12032,-1.69684 -0.83079,-1.58672 -0.30874,0.0358 -0.5785,0.22231 -0.7404,0.51213 -0.22813,0.40835 -0.22378,0.50313 0.0416,0.90844 0.34641,0.52867 1.04498,0.60457 1.52942,0.16615 z m -1.03324,-0.26734 c -0.27368,-0.27369 -0.26276,-0.5694 0.03,-0.81238 0.30831,-0.25587 0.80058,-0.0641 0.80058,0.31179 0,0.28505 -0.31018,0.70824 -0.51911,0.70824 -0.057,0 -0.19721,-0.0935 -0.31146,-0.20765 z m 2.70952,-0.008 0.1586,-0.56236 0.21253,0.5712 c 0.24899,0.66914 0.69525,0.68686 0.86739,0.0344 0.34834,-1.32015 0.35259,-1.38427 0.092,-1.38427 -0.14572,0 -0.32136,0.24467 -0.40377,0.56234 l -0.14592,0.56237 -0.2015,-0.57796 c -0.24462,-0.70124 -0.54873,-0.64332 -0.8181,0.15574 l -0.2007,0.59519 -0.12203,-0.64889 c -0.0746,-0.39656 -0.21984,-0.64888 -0.37368,-0.64888 -0.30138,0 -0.30956,0.11357 -0.0633,0.88261 0.10366,0.3235 0.21791,0.68552 0.25415,0.80448 0.12877,0.42332 0.58767,0.21002 0.7444,-0.34607 z m 3.60064,0.10973 c 0.26556,-0.40532 0.26993,-0.5001 0.0419,-0.90844 -0.48512,-0.86832 -1.88764,-0.55347 -1.88764,0.42373 0,0.95391 1.31258,1.29858 1.84585,0.48471 z m -1.11694,-0.0992 c -0.2839,-0.28392 -0.26382,-0.57249 0.0584,-0.83995 0.38371,-0.31843 0.93851,0.22048 0.66818,0.64904 -0.24305,0.38529 -0.47206,0.44546 -0.7266,0.19089 z m 3.08925,0.37241 c 0.23103,-0.12361 0.33469,-0.36293 0.33469,-0.77257 0,-0.40962 -0.10365,-0.64892 -0.33469,-0.77257 -0.76768,-0.41083 -1.5687,-0.0164 -1.5687,0.77257 0,0.78891 0.80102,1.18342 1.5687,0.77257 z m -0.83331,-0.28155 c -0.32199,-0.12996 -0.26148,-0.86923 0.082,-1.00103 0.41701,-0.16003 0.78355,0.36482 0.55414,0.79347 -0.17698,0.3308 -0.26198,0.35853 -0.63609,0.20756 z m 3.41746,-0.86545 c 0,-0.73092 -0.0734,-1.2694 -0.1731,-1.2694 -0.0952,0 -0.1731,0.18129 -0.1731,0.40262 0,0.34385 -0.0718,0.39211 -0.49121,0.33052 -0.58755,-0.0862 -1.06611,0.32257 -1.06611,0.91069 0,0.61769 0.44345,0.95217 1.22194,0.92168 l 0.68144,-0.0268 z m -1.16798,0.86545 c -0.30063,-0.12124 -0.27172,-0.8653 0.0382,-0.98425 0.40738,-0.15634 0.81859,0.36418 0.60419,0.76479 -0.18333,0.34248 -0.26684,0.37102 -0.64244,0.21946 z m 3.31855,0.18885 c 0.63707,-0.63706 0.0513,-1.70847 -0.87531,-1.60119 -0.30873,0.0358 -0.5785,0.22233 -0.7404,0.51215 -0.22813,0.40833 -0.22378,0.50312 0.0416,0.90843 0.34384,0.52472 1.13862,0.61594 1.57393,0.18066 z m -1.07776,-0.2818 c -0.27368,-0.27368 -0.26275,-0.5694 0.03,-0.81237 0.30832,-0.25588 0.80059,-0.0641 0.80059,0.31179 0,0.28503 -0.31018,0.70823 -0.51911,0.70823 -0.057,0 -0.19722,-0.0935 -0.31146,-0.20765 z m -20.74643,-1.08774 c 0.0184,-0.0939 -0.10219,-0.19702 -0.26869,-0.229 -0.18945,-0.0364 -0.30281,0.0484 -0.30281,0.22662 0,0.30104 0.51136,0.30317 0.5715,0.003 z m 34.15022,-0.99734 c -0.14224,-0.53758 -0.21004,-0.63306 -0.25202,-0.355 -0.0505,0.33455 0.21611,1.0904 0.38459,1.0904 0.0341,0 -0.0255,-0.33093 -0.13263,-0.7354 z m -36.62511,0.30281 c 0,-0.14285 -0.11674,-0.25955 -0.25954,-0.25955 -0.14287,0 -0.25956,0.11687 -0.25956,0.25955 0,0.14266 0.11674,0.25956 0.25956,0.25956 0.14285,0 0.25954,-0.11688 0.25954,-0.25956 z m -9.25739,-0.25955 c 0.0588,-0.0952 0.0245,-0.1731 -0.0763,-0.1731 -0.10074,0 -0.18332,0.0779 -0.18332,0.1731 0,0.0952 0.0344,0.1731 0.0763,0.1731 0.0419,0 0.12441,-0.0779 0.18333,-0.1731 z m 6.31578,-2.23742 c 0,-0.21468 -0.13918,-0.35379 -0.38933,-0.38933 -0.30249,-0.043 -0.40183,-0.18639 -0.4454,-0.64278 -0.0566,-0.59392 0.21006,-0.94984 0.60412,-0.8059 0.22806,0.0834 0.45639,-0.37122 0.30748,-0.61213 -0.0536,-0.0866 -0.28735,-0.15737 -0.51967,-0.15737 -0.30702,0 -0.42237,-0.0944 -0.42237,-0.34606 0,-0.2538 -0.11529,-0.34606 -0.43259,-0.34606 -0.31723,0 -0.43258,0.0922 -0.43258,0.34606 0,0.23072 -0.11529,0.34606 -0.34609,0.34606 -0.42536,0 -0.4897,0.77304 -0.0775,0.9312 0.15389,0.0591 0.22343,0.03 0.16288,-0.0681 -0.058,-0.094 -0.0233,-0.17106 0.0775,-0.17106 0.1018,0 0.18332,0.34598 0.18332,0.77865 0,0.93595 0.44047,1.47082 1.21124,1.47082 0.39752,0 0.5191,-0.0783 0.5191,-0.33405 z m 5.67992,0.0588 c 0.29615,-0.20743 0.34657,-0.33087 0.2049,-0.50158 -0.14469,-0.17433 -0.30288,-0.18311 -0.68653,-0.0382 -0.60951,0.23007 -1.04544,-0.0538 -1.04544,-0.68075 0,-0.51425 0.72019,-0.9165 1.09055,-0.60911 0.1778,0.14755 0.31694,0.13263 0.56749,-0.0611 0.32693,-0.25281 0.32689,-0.26048 -0.004,-0.51619 -0.63068,-0.48735 -2.15451,-0.20028 -2.32874,0.43874 -0.26041,0.95521 -0.21735,1.20482 0.29651,1.71869 0.59341,0.59343 1.28497,0.68397 1.90528,0.24948 z m -13.67296,-3.10362 c -0.0534,-0.0533 -0.15001,0.0427 -0.215,0.2134 -0.094,0.24662 -0.074,0.26649 0.0969,0.0969 0.11833,-0.11727 0.17146,-0.25701 0.11806,-0.31027 z m 17.49782,-0.24057 c 0.0119,0.27446 0.53128,0.40125 0.53128,0.12983 0,-0.0793 0.001,-0.19946 0.004,-0.2671 0.003,-0.0677 -0.22495,-0.14897 -0.505,-0.18106 -0.45285,-0.0517 -0.49793,-0.0143 -0.40767,0.32992 0.0962,0.36812 0.10828,0.37077 0.2333,0.0513 0.0974,-0.24925 0.13488,-0.26558 0.14387,-0.0628 z m -64.230794,-8.77072 c -0.05738,-0.0574 -0.206737,-0.0636 -0.33165,-0.0143 -0.137961,0.0551 -0.09704,0.0963 0.104579,0.10458 0.182304,0.008 0.284608,-0.0333 0.227123,-0.091 z M 73.921997,86.261315 c 4.261436,-1.202913 7.671426,-3.464334 10.110373,-6.704922 0.530136,-0.704389 0.963891,-1.32701 0.963891,-1.38358 0,-0.05661 0.182913,-0.393294 0.406546,-0.748288 0.223581,-0.354995 0.67919,-1.325376 1.012452,-2.156415 0.333249,-0.83104 0.648662,-1.468232 0.700899,-1.416015 0.05236,0.05231 0.08342,-0.03781 0.06915,-0.200285 -0.02049,-0.228938 0.219455,-0.346207 1.066843,-0.522089 2.307,-0.478886 4.401671,-2.163916 5.465699,-4.396806 l 0.53594,-1.124722 v -3.218212 c 0,-2.12676 -0.06954,-3.359146 -0.204569,-3.633741 -0.112643,-0.228549 -0.340547,-0.718082 -0.506709,-1.087874 -0.166148,-0.36977 -0.714582,-1.117876 -1.218752,-1.662426 -0.504183,-0.544571 -0.860159,-1.05262 -0.791079,-1.129034 0.06901,-0.07643 0.03107,-0.08461 -0.08422,-0.01839 -0.11542,0.06621 -0.510305,-0.06908 -0.877479,-0.300959 -0.68346,-0.431429 -2.10337,-0.975285 -2.546367,-0.975285 -0.324695,0 -0.502888,-0.382627 -0.765629,-1.643849 C 85.98317,47.814199 81.202452,42.538163 75.133452,40.556569 72.794205,39.792788 71.674332,39.663012 67.422058,39.663012 H 63.36704 V 37.104801 34.54657 l 0.56237,-0.320967 c 1.589364,-0.907147 2.3817,-2.352346 2.266571,-4.134248 -0.108677,-1.683845 -0.950683,-2.864075 -2.569389,-3.601982 -1.518834,-0.692372 -3.761023,-0.191905 -4.836656,1.0797 -0.273143,0.322908 -0.542486,0.574122 -0.598546,0.558264 -0.056,-0.01636 -0.113224,0.139789 -0.127318,0.346063 -0.01431,0.206211 -0.114653,0.719349 -0.22391,1.140315 -0.144696,0.55761 -0.14817,0.980395 -0.0123,1.557318 0.102185,0.435558 0.20709,0.886404 0.233127,1.001895 0.103825,0.460676 1.210886,1.629072 1.854781,1.95756 l 0.683116,0.348497 v 2.575418 2.575419 l -4.628688,0.0838 c -4.758422,0.08624 -5.222961,0.145105 -7.484544,0.947715 -3.008669,1.067806 -6.17791,3.284836 -8.150487,5.701621 -1.028445,1.260038 -2.896448,4.583297 -3.032406,5.394757 -0.02228,0.133047 -0.153852,0.600201 -0.292349,1.038211 -0.138503,0.438011 -0.306352,1.106411 -0.372989,1.485338 -0.175311,0.996868 -0.357616,1.247591 -0.99419,1.367313 -0.690002,0.129777 -2.650912,1.041072 -3.007562,1.397722 -0.142203,0.142244 -0.397437,0.357612 -0.567188,0.478702 -0.480603,0.342814 -1.532119,1.797454 -1.899223,2.627351 -0.820915,1.855823 -0.920068,5.702049 -0.200878,7.79239 0.91361,2.655451 3.0006,4.554358 5.696767,5.183313 1.2995,0.303166 1.349831,0.337378 1.492173,1.014177 0.175064,0.832429 1.322663,3.219867 2.195513,4.567498 0.800786,1.236392 2.551887,3.110157 4.02904,4.311294 2.299115,1.869496 5.913276,3.354089 9.000832,3.697253 0.759714,0.08435 5.508183,0.131549 10.552154,0.104579 l 9.170881,-0.04892 1.816871,-0.51287 z M 53.071219,78.30919 c -4.877878,-0.585689 -8.902808,-3.957609 -10.24166,-8.580001 -0.367958,-1.270379 -0.400018,-1.710147 -0.400018,-5.486642 0,-3.490884 0.05006,-4.301241 0.33428,-5.412578 1.061121,-4.148922 3.938828,-7.105904 8.317485,-8.546586 0.861062,-0.283321 1.840782,-0.318596 10.287921,-0.370446 10.306996,-0.06336 10.954667,-0.01431 13.2029,1.005431 3.015607,1.367353 5.121966,3.636622 6.331569,6.821255 l 0.528074,1.390304 0.0673,4.378106 c 0.07602,4.951922 -0.0632,6.006483 -1.068668,8.09803 -1.172505,2.438735 -3.070143,4.32924 -5.556699,5.535753 -2.50788,1.216854 -3.220744,1.285931 -12.957047,1.255623 -4.579453,-0.01431 -8.559891,-0.05396 -8.845399,-0.08829 z m 10.086472,-6.467874 c 1.683665,-0.388368 3.037484,-1.32047 3.829554,-2.636628 0.370215,-0.615202 0.376813,-0.678476 0.112776,-1.081478 -0.304136,-0.464169 -1.001413,-0.577637 -1.301252,-0.21175 -0.09744,0.11895 -0.383238,0.473204 -0.634992,0.787182 -0.251755,0.313976 -0.852554,0.770933 -1.335117,1.015465 -0.771037,0.390718 -1.031775,0.434699 -2.151041,0.362882 -1.050822,-0.06744 -1.400482,-0.17065 -1.998414,-0.589348 -0.398628,-0.279193 -0.913013,-0.796704 -1.143095,-1.150044 -0.31271,-0.480255 -0.536682,-0.642423 -0.887243,-0.642423 -1.425476,0 -0.86474,2.089134 0.843364,3.14206 1.699805,1.047817 3.13593,1.35689 4.665474,1.004082 z m -9.437467,-7.542771 c 0.683033,-0.353196 0.87874,-0.548904 1.231936,-1.231936 0.624275,-1.207208 0.148783,-2.620728 -1.10447,-3.283487 -0.917999,-0.485446 -1.372953,-0.493621 -2.26095,-0.04067 -1.876731,0.957443 -1.850592,3.613017 0.04475,4.546999 0.734086,0.36176 1.401054,0.364642 2.088727,0.0082 z m 18.493512,0.0376 c 2.113247,-0.885279 2.132775,-3.703431 0.03213,-4.63265 -0.948555,-0.419598 -1.717569,-0.320539 -2.477817,0.319167 -1.567218,1.318734 -1.263466,3.477907 0.606739,4.312686 0.674073,0.300877 1.122279,0.301061 1.839017,8.59e-4 z m 80.407154,22.387971 c 2.50539,-0.257096 5.19933,-1.113524 7.06173,-2.244991 0.62615,-0.380378 1.17808,-0.691617 1.22651,-0.691617 0.15534,0 1.83517,-1.441356 2.78022,-2.385575 0.51885,-0.51837 0.99947,-0.862962 1.10914,-0.795193 0.12177,0.07522 0.1449,0.04088 0.0621,-0.09298 -0.0756,-0.122215 0.0106,-0.372551 0.20253,-0.589103 0.69541,-0.78428 1.69053,-2.486212 2.33806,-3.998771 0.36941,-0.86284 0.77755,-1.810984 0.90703,-2.106977 0.20355,-0.46556 0.34822,-0.553154 1.07167,-0.649148 1.30989,-0.173716 2.87016,-1.008414 3.99023,-2.134424 1.96257,-1.972929 2.613,-4.153316 2.32387,-7.789857 -0.12507,-1.572012 -0.28109,-2.448135 -0.53946,-3.027735 -0.39546,-0.88712 -1.43786,-2.340658 -1.9307,-2.692198 -0.16984,-0.121197 -0.41533,-0.326832 -0.54573,-0.457242 -0.37073,-0.370732 -1.86254,-1.081315 -2.9085,-1.385379 -0.7261,-0.211077 -0.95707,-0.358899 -0.97714,-0.625298 -0.0143,-0.191905 -0.18844,-0.974428 -0.38663,-1.739025 -0.19824,-0.764598 -0.31842,-1.458012 -0.26716,-1.540948 0.0513,-0.08298 0.0164,-0.198036 -0.0763,-0.255567 -0.0932,-0.05763 -0.46375,-0.705391 -0.82336,-1.439496 -2.38731,-4.873485 -6.40246,-8.240581 -11.73087,-9.837506 -1.48553,-0.445204 -1.77073,-0.470138 -6.186,-0.540748 l -4.62869,-0.07399 V 37.054929 34.47951 l 0.6831,-0.348495 c 0.64536,-0.329223 1.75361,-1.499929 1.85314,-1.95756 0.0251,-0.115472 0.12361,-0.521436 0.21886,-0.90212 0.18884,-0.754625 0.085,-1.769273 -0.26773,-2.617909 -0.85825,-2.064467 -3.51295,-3.072206 -5.60201,-2.126555 -1.67893,0.759979 -2.47371,2.00383 -2.47879,3.879294 -0.004,1.768638 0.74557,3.026081 2.26248,3.791455 l 0.56237,0.28375 v 2.576441 2.576441 l -4.62867,0.06949 c -4.43249,0.06662 -4.69336,0.08931 -6.15372,0.53617 -2.3071,0.705983 -3.50427,1.256952 -5.30988,2.443823 -2.60769,1.714091 -4.67968,3.990372 -6.15167,6.758226 -0.73401,1.380209 -1.57308,3.687513 -1.74127,4.78822 -0.16494,1.079619 -0.32564,1.297744 -1.05696,1.434879 -1.92169,0.360369 -4.37064,2.308324 -5.22641,4.157219 -0.98692,2.132259 -1.14704,5.870475 -0.35308,8.242727 0.79113,2.363771 2.94368,4.367703 5.30042,4.934448 0.65056,0.156345 1.28824,0.312444 1.41708,0.346656 0.13155,0.03494 0.18925,0.179235 0.13182,0.329285 -0.0565,0.146944 -0.0386,0.227609 0.0394,0.17944 0.0781,-0.04823 0.2726,0.326954 0.43236,0.833737 0.26147,0.829506 0.59595,1.540394 1.47188,3.128348 1.42281,2.579321 4.3916,5.414557 7.20727,6.883035 2.05873,1.073714 4.56631,1.847077 6.57532,2.027927 2.18481,0.196597 16.81787,0.193741 18.7422,-0.004 z M 133.3596,78.149061 c -4.43212,-0.814199 -8.22331,-4.386629 -9.34219,-8.803095 -0.36229,-1.430035 -0.36464,-8.661484 -0.004,-10.366666 0.70812,-3.342305 3.27847,-6.474455 6.5558,-7.98867 2.36972,-1.094884 2.93736,-1.140929 13.35261,-1.083235 l 9.33622,0.05171 1.38428,0.487163 c 4.13602,1.45554 6.81996,4.32131 7.88108,8.414951 0.33399,1.288444 0.35878,1.767084 0.2987,5.768389 -0.0587,3.911013 -0.10444,4.479986 -0.44105,5.488093 -0.901,2.698185 -3.31776,5.571355 -5.74492,6.82988 -2.64701,1.372504 -2.58518,1.365678 -12.80854,1.413378 -7.38751,0.03453 -9.34289,-0.0041 -10.46862,-0.211915 z m 12.57446,-6.525018 c 1.89917,-0.929178 3.25283,-2.844208 3.39738,-4.806327 0.11978,-1.625699 0.40098,-1.557052 -6.16175,-1.504058 l -5.64715,0.04557 -0.19497,0.391026 c -0.26732,0.536375 -0.007,2.097289 0.52802,3.150604 0.70045,1.382252 2.18866,2.637916 3.72311,3.141306 0.2379,0.07807 1.10073,0.120787 1.91736,0.09503 1.19934,-0.03781 1.66805,-0.13652 2.43792,-0.5132 z m -10.56689,-8.993548 c 0.8004,-0.534679 1.23134,-1.410824 1.13954,-2.316704 -0.28406,-2.803213 -4.17314,-3.125364 -4.95677,-0.410605 -0.29804,1.03251 0.27971,2.336283 1.29055,2.912347 0.60099,0.342508 1.87689,0.249069 2.52668,-0.184957 z m 19.06381,-0.460145 c 0.66579,-0.71377 0.68206,-0.760878 0.60936,-1.765859 -0.0656,-0.907658 -0.15022,-1.108107 -0.69951,-1.657357 -0.52737,-0.527383 -0.76843,-0.636355 -1.54564,-0.69877 -0.7579,-0.0609 -1.02798,-0.0017 -1.52644,0.334251 -1.60115,1.079189 -1.57977,3.287636 0.0416,4.305819 0.43871,0.275473 0.77187,0.338686 1.50024,0.28467 0.83889,-0.06213 1.00746,-0.145717 1.62033,-0.802754 z M 84.477125,46.75798 c 0,-0.09523 -0.08237,-0.173104 -0.183323,-0.173104 -0.100744,0 -0.135092,0.07787 -0.07628,0.173104 0.05883,0.09523 0.141213,0.173103 0.183322,0.173103 0.04191,0 0.07629,-0.07787 0.07629,-0.173103 z M 148.09928,31.325394 c -0.0551,-0.137952 -0.0962,-0.09708 -0.10458,0.104432 -0.008,0.182505 0.0333,0.284609 0.091,0.227119 0.0574,-0.05743 0.0636,-0.206744 0.0143,-0.331656 z"
       id="path240"
       clip-path="url(#clipPath404)"
       transform="matrix(1.7382115,0,0,1.7382115,-147.90862,1.9820901)" /></g></svg>
