<?xml version="1.0" encoding="UTF-8" standalone="no"?>
<!-- Created with Inkscape (http://www.inkscape.org/) -->

<svg
   width="117.38042mm"
   height="108.49657mm"
   viewBox="0 0 117.38042 108.49657"
   version="1.1"
   id="svg5"
   xml:space="preserve"
   xmlns="http://www.w3.org/2000/svg"
   xmlns:svg="http://www.w3.org/2000/svg"><defs
     id="defs2"><clipPath
       clipPathUnits="userSpaceOnUse"
       id="clipPath414"><g
         id="use416"><path
           style="fill:#000000;stroke-width:0.0846667"
           d="m 65.967144,56.691724 v -24.29933 h 24.299332 24.299334 v 24.29933 24.29933 H 90.266476 65.967144 Z m 1.760771,22.60653 c 0.183426,-0.32234 0.271229,-0.32252 0.271229,-5.3e-4 0,0.1397 0.0381,0.254 0.08467,0.254 0.04657,0 0.08467,-0.1143 0.08467,-0.254 0,-0.1397 0.0381,-0.254 0.08467,-0.254 0.04657,0 0.08467,0.1143 0.08467,0.254 v 0.254 h 0.127 c 0.06985,0 0.122488,-0.0286 0.116973,-0.0635 -0.02969,-0.18802 0.0268,-0.25493 0.181144,-0.21457 l 0.171118,0.0447 -0.09682,0.11666 -0.09682,0.11666 h 0.13027 c 0.07165,0 0.180865,-0.1143 0.242702,-0.254 0.06184,-0.1397 0.141231,-0.254 0.17643,-0.254 0.0352,0 0.064,0.1143 0.064,0.254 0,0.1397 0.0381,0.254 0.08467,0.254 0.04657,0 0.08467,-0.14715 0.08467,-0.32699 v -0.327 l -1.107194,-0.002 -1.107194,-0.002 -0.04956,0.12916 c -0.02778,0.0724 0.01602,0.17711 0.09967,0.23828 0.08208,0.06 0.124121,0.14976 0.09343,0.19942 -0.03069,0.0497 -0.01369,0.0903 0.03779,0.0903 0.05148,0 0.158504,-0.11406 0.23783,-0.25347 z m 1.075562,-0.16986 c -0.02878,-0.0466 0.0093,-0.0847 0.08467,-0.0847 0.07535,0 0.113446,0.0381 0.08467,0.0847 -0.02878,0.0466 -0.06688,0.0847 -0.08467,0.0847 -0.01779,0 -0.05589,-0.0381 -0.08467,-0.0847 z m -1.328208,-0.0578 c 0.06112,-0.0245 0.134144,-0.0214 0.162278,0.007 0.02813,0.0281 -0.02187,0.0481 -0.111125,0.0445 -0.09863,-0.004 -0.118694,-0.0241 -0.05115,-0.0512 z m 2.624937,0.29027 c 0.01754,-0.0925 -0.04607,-0.17834 -0.16861,-0.22747 l -0.196786,-0.0789 0.14317,-0.005 c 0.265571,-0.01 0.255035,-0.1747 -0.01117,-0.1747 h -0.258997 v 0.21166 0.21167 l 0.1905,0.0115 0.1905,0.0115 -0.1905,0.0367 c -0.272873,0.0526 -0.236039,0.21075 0.04161,0.17871 0.140265,-0.0162 0.243258,-0.0856 0.260286,-0.17536 z m 1.179771,0.0875 0.105833,-0.0867 v 0.095 c 0,0.0523 0.09268,0.095 0.205962,0.095 0.229388,0 0.347568,-0.23117 0.259705,-0.508 -0.07064,-0.22258 -0.435363,-0.22886 -0.50524,-0.009 l -0.05098,0.16064 -0.181311,-0.0474 -0.181312,-0.0474 0.184257,-0.0682 c 0.257366,-0.0952 0.229572,-0.15828 -0.06974,-0.15828 h -0.254 v 0.20577 0.20578 l 0.1905,0.0367 0.1905,0.0367 -0.232834,0.0115 -0.232833,0.0115 v -0.127 c 0,-0.0699 -0.06182,-0.127 -0.137367,-0.127 H 70.43375 l 0.105401,-0.127 0.1054,-0.127 h -0.120433 c -0.188999,0 -0.323634,0.18182 -0.323634,0.43707 v 0.23387 l 0.486833,-0.005 c 0.267759,-0.003 0.534459,-0.0441 0.592667,-0.0918 z m 0.24143,-0.11642 c -0.05742,-0.14964 0.0019,-0.28821 0.1234,-0.28821 0.101462,0 0.104694,0.31321 0.0039,0.37552 -0.04169,0.0258 -0.09896,-0.0135 -0.127274,-0.0873 z m 9.939736,-15.48588 v -5.12233 h 2.709333 2.709334 v 5.12233 5.12234 h 8.228376 8.228374 l 0.19596,-0.18409 0.19595,-0.1841 v -0.51673 c 0,-0.33066 -0.0475,-0.5845 -0.1318,-0.70491 l -0.1318,-0.18817 h -0.7572 -0.7572 v -5.75734 -5.75733 l -0.10583,-7e-5 c -0.24341,-1.6e-4 -1.15895,-0.51095 -1.4465,-0.80704 l -0.31033,-0.31953 v 0.25557 c 0,0.35052 -0.267717,0.66064 -0.719159,0.83304 l -0.37867,0.14462 -0.657586,-0.0398 c -0.832245,-0.0504 -1.430077,-0.30246 -1.88331,-0.79416 -0.209695,-0.2275 -0.340609,-0.31832 -0.340609,-0.23631 0,0.27526 -0.307108,0.63632 -0.713488,0.83883 l -0.420427,0.20951 h -0.562586 c -0.969266,0 -1.74754,-0.34992 -2.112288,-0.9497 l -0.153703,-0.25274 -0.06048,0.19905 c -0.08597,0.28291 -0.367865,0.56863 -0.76069,0.77101 -0.433748,0.22347 -1.418698,0.29572 -1.961077,0.14386 -0.446814,-0.1251 -1.129064,-0.71488 -1.129573,-0.97647 l -3.38e-4,-0.16268 -0.161808,0.26536 c -0.373402,0.61237 -1.144837,0.96292 -2.115848,0.96148 l -0.558044,-8.5e-4 -0.438992,-0.20439 -0.438992,-0.20439 -0.132508,-0.25624 c -0.07286,-0.14092 -0.132486,-0.31442 -0.132486,-0.38554 0,-0.0762 -0.139986,0.0226 -0.34061,0.24021 -0.453232,0.4917 -1.051064,0.74379 -1.883309,0.79416 l -0.657586,0.0398 -0.37867,-0.14462 c -0.453337,-0.17313 -0.719158,-0.48276 -0.719158,-0.83768 v -0.26021 l -0.359833,0.35144 c -0.331703,0.32397 -1.147704,0.78171 -1.397,0.78365 l -0.105834,8.3e-4 v 5.75733 5.75734 H 77.655949 76.89875 l -0.131801,0.18817 -0.131801,0.18817 v 0.5315 0.53149 l 0.169334,0.16933 0.169333,0.16934 h 2.243667 2.243666 z m 8.466666,-2.11666 v -3.00567 h 4.783667 4.783666 v 3.00567 3.00566 h -4.783666 -4.783667 z m -10.973726,-6.90911 c 0.29717,-0.11507 0.663322,-0.34898 0.906318,-0.57898 l 0.407712,-0.38591 1.319932,-3.11585 c 0.725962,-1.71372 1.355401,-3.20915 1.398752,-3.32317 l 0.07882,-0.20731 h -1.429206 -1.429206 l -0.462786,0.78316 c -0.254534,0.43074 -1.153498,1.94232 -1.997699,3.35907 l -1.534912,2.5759 v 0.23277 c 0,0.30004 0.362443,0.72934 0.70552,0.83566 0.425663,0.13191 1.47699,0.0414 2.036753,-0.17534 z m 8.243843,0.0116 c 0.498456,-0.21671 0.910616,-0.63142 0.985251,-0.99135 0.04832,-0.23303 0.559299,-6.14197 0.559299,-6.46774 v -0.16371 H 87.313013 85.88355 l -0.03976,0.1905 c -0.02187,0.10477 -0.38826,1.55451 -0.814203,3.22164 -0.425944,1.66713 -0.774443,3.14601 -0.774443,3.2864 0,0.47423 0.23814,0.75204 0.88104,1.0278 l 0.346627,0.14868 0.635,-0.0293 0.635,-0.0293 z m 7.955881,0.12328 0.430731,-0.12791 0.261969,-0.29837 0.261969,-0.29836 v -0.26632 c 0,-0.24364 -1.558345,-6.52054 -1.659447,-6.68412 -0.02413,-0.0391 -0.670282,-0.071 -1.435883,-0.071 h -1.392003 l 9.73e-4,0.27516 c 5.08e-4,0.15134 0.09291,1.32292 0.205264,2.6035 0.11236,1.28059 0.230828,2.66291 0.263263,3.07184 l 0.05897,0.7435 0.180263,0.26471 c 0.517473,0.7599 1.754759,1.10488 2.823928,0.78737 z m 8.252363,0.0283 c 0.39699,-0.11894 0.74564,-0.50248 0.74564,-0.82026 0,-0.14753 -0.61464,-1.25875 -1.72062,-3.11073 -0.94633,-1.58466 -1.84448,-3.09771 -1.99588,-3.36232 l -0.27526,-0.48111 h -1.44218 -1.442178 l 0.0409,0.10583 c 0.02249,0.0582 0.661307,1.56215 1.419589,3.3421 l 1.378689,3.23626 0.25583,0.26167 c 0.71989,0.73632 2.09267,1.11103 3.03547,0.82856 z m -2.22099,-8.55239 0.17263,-0.1853 v -0.48061 -0.48062 l -0.17548,-0.22309 -0.17548,-0.22308 H 90.214149 79.421446 l -0.207817,0.20782 -0.207819,0.20782 v 0.45809 0.4581 l 0.175478,0.22308 0.175479,0.22309 h 10.82789 10.827893 z m 24.18883,22.36322 -0.22487,-0.17688 v -0.54419 -0.54419 l 0.16934,-0.16933 0.16933,-0.16933 h 0.71967 0.71966 v -0.16934 c 0,-0.16443 0.11071,-0.20771 0.4445,-0.17376 l 0.14817,0.0151 v -0.47099 -0.47099 h -0.127 c -0.0779,0 -0.127,0.0792 -0.127,0.20474 0,0.29025 -0.084,0.47259 -0.21763,0.47259 h -0.11485 l -0.003,-5.461 -0.003,-5.461 h 0.12932 c 0.22813,0 1.16859,-0.52018 1.41247,-0.78125 l 0.23601,-0.25266 v 0.14016 c 0,0.28557 0.26783,0.64341 0.61558,0.82249 l 0.35809,0.1844 0.635,-0.003 0.635,-0.003 0.508,-0.19334 c 0.31313,-0.11918 0.6454,-0.32978 0.86619,-0.549 l 0.35818,-0.35566 0.0475,0.14957 c 0.0874,0.27523 0.39194,0.58993 0.747,0.77181 l 0.35183,0.18023 0.59266,0.003 c 0.80722,0.005 1.39977,-0.20821 1.89097,-0.67887 0.21567,-0.20664 0.40594,-0.33423 0.42284,-0.28354 0.0822,0.24669 0.47861,0.59064 0.8804,0.76394 l 0.44646,0.19257 0.55033,0.004 c 0.30943,0.002 0.74259,-0.0609 0.98954,-0.14401 l 0.43921,-0.14778 0.30163,-0.33386 c 0.16589,-0.18363 0.30176,-0.38138 0.30194,-0.43946 1.7e-4,-0.0581 0.0726,0.013 0.16095,0.15785 0.34967,0.57343 1.08344,0.89314 2.06181,0.89835 l 0.65674,0.003 0.40159,-0.20344 0.40159,-0.20344 0.16353,-0.33686 0.16353,-0.33687 0.35766,0.35076 c 0.21318,0.20908 0.55754,0.42654 0.85247,0.53834 l 0.49481,0.18757 0.635,0.006 0.635,0.006 0.3198,-0.15251 c 0.39211,-0.187 0.65387,-0.50512 0.65387,-0.79464 v -0.21743 l 0.3175,0.30853 c 0.29804,0.28963 1.11987,0.73917 1.35466,0.741 l 0.10584,8.5e-4 0.0212,2.94217 c 0.0117,1.61819 0.007,4.20899 -0.0111,5.75733 l -0.0322,2.81517 h 0.73459 0.73459 l 0.20782,0.20782 0.20781,0.20781 v 0.38906 c 0,0.47339 -0.18037,0.84921 -0.44111,0.91906 -0.10664,0.0286 -3.84196,0.0525 -8.30072,0.0531 l -8.10683,10e-4 v -5.12234 -5.12233 l -2.7305,3e-5 -2.7305,3e-5 0.0128,3.2808 c 0.007,1.90736 -0.0243,3.53939 -0.0757,3.8985 l -0.0885,0.6177 0.10133,0.18933 0.10133,0.18934 -0.0256,1.0133 -0.0256,1.0133 -2.16697,0.0226 -2.16696,0.0226 z m 3.19808,-2.07564 c 0.29464,-0.29463 0.0498,-0.79828 -0.38807,-0.79828 h -0.24088 v -0.16934 c 0,-0.0941 -0.0564,-0.16933 -0.127,-0.16933 h -0.127 v 0.635 0.635 h 0.37495 c 0.22798,0 0.42711,-0.0521 0.508,-0.13305 z m -0.59677,-0.24389 c -0.0657,-0.17109 0.032,-0.30039 0.22682,-0.30039 h 0.16434 v 0.21166 0.21167 h -0.17199 c -0.0946,0 -0.19323,-0.0553 -0.21917,-0.12294 z m 1.69579,0.10177 c -0.0252,-0.15134 -0.0636,-0.36302 -0.0853,-0.47039 l -0.0396,-0.19523 -0.35703,0.0259 c -0.41322,0.03 -0.47413,0.17202 -0.10304,0.24031 l 0.254,0.0468 -0.27516,0.0578 -0.27517,0.0578 v 0.19967 c 0,0.27839 0.0568,0.31256 0.51999,0.31256 h 0.40711 z m -0.6273,0.0302 c 0,-0.0416 0.0603,-0.0987 0.13392,-0.127 0.20712,-0.0795 0.23449,-0.0623 0.12008,0.0756 -0.11681,0.14075 -0.254,0.1685 -0.254,0.0514 z m 18.96533,-4.87739 v -3.00567 h -4.826 -4.826 v 3.00567 3.00566 h 4.826 4.826 z m 4.49698,2.159 c -0.0645,-0.16299 -0.12846,-0.34809 -0.14202,-0.41134 -0.0136,-0.0633 -0.10363,-0.19905 -0.20015,-0.30179 -0.0965,-0.10273 -0.17548,-0.22327 -0.17548,-0.26787 0,-0.0446 -0.10764,-0.21359 -0.2392,-0.37555 -0.13158,-0.16195 -0.26642,-0.3516 -0.29966,-0.42145 -0.0332,-0.0698 -0.11495,-0.22225 -0.18157,-0.33867 l -0.12113,-0.21167 0.72777,-0.0246 c 0.40028,-0.0135 0.74305,-0.009 0.76172,0.009 0.0187,0.0187 0.0234,0.6203 0.0105,1.33695 l -0.0234,1.30301 z m -26.97416,-8.89625 c -0.18527,-0.0461 -0.44244,-0.18498 -0.5715,-0.30862 l -0.23465,-0.22481 v -0.262 -0.26199 l 1.10861,-1.86 c 0.60973,-1.023 1.50898,-2.53627 1.99834,-3.36283 l 0.88973,-1.50283 h 1.38833 c 0.76358,0 1.38832,0.0245 1.38832,0.0544 0,0.0585 -2.45462,5.85522 -2.72179,6.42769 -0.41682,0.89312 -2.12785,1.57901 -3.24539,1.30095 z m 8.27224,-0.003 c -0.22328,-0.0529 -0.49089,-0.20844 -0.6985,-0.40593 l -0.33656,-0.32016 v -0.29565 c 0,-0.16261 0.30498,-1.49249 0.67773,-2.95528 0.37274,-1.46279 0.74093,-2.9168 0.81819,-3.23112 l 0.14047,-0.5715 h 1.42648 1.42647 l -0.0453,0.3175 c -0.0249,0.17462 -0.1566,1.65247 -0.29263,3.2841 -0.13602,1.63164 -0.2837,3.06039 -0.32817,3.175 -0.28836,0.74323 -1.71653,1.25702 -2.78817,1.00304 z m 8.15128,-0.0717 c -0.64619,-0.2127 -1.11188,-0.59328 -1.22674,-1.00255 -0.078,-0.278 -0.5936,-5.90495 -0.5936,-6.47847 v -0.22689 h 1.39374 1.39373 l 0.083,0.3175 c 0.0456,0.17462 0.43347,1.69548 0.86185,3.37968 l 0.77886,3.06219 -0.16786,0.32345 -0.16785,0.32345 -0.37481,0.19289 c -0.22838,0.11752 -0.58921,0.20911 -0.92357,0.23442 l -0.54875,0.0416 z m 8.61363,0.0806 c -0.58382,-0.12197 -1.33109,-0.49757 -1.65435,-0.83154 l -0.30069,-0.31064 -0.86332,-2.032 c -0.47482,-1.1176 -1.10622,-2.59559 -1.40312,-3.28442 -0.2969,-0.68883 -0.53982,-1.27078 -0.53982,-1.29322 0,-0.0224 0.63445,-0.0303 1.40988,-0.0176 l 1.40989,0.0232 1.93992,3.25527 c 1.06695,1.7904 1.96099,3.36062 1.98674,3.48939 0.0737,0.36867 -0.0346,0.6356 -0.33279,0.81959 -0.32508,0.20063 -1.13564,0.28987 -1.65234,0.18193 z m -22.84148,-8.589 -0.20782,-0.20782 v -0.47336 -0.47336 l 0.20782,-0.20782 0.20782,-0.20782 h 10.75651 10.75651 l 0.16934,0.16933 0.16933,0.16934 v 0.55033 0.55033 l -0.16933,0.16934 -0.16934,0.16933 h -10.75651 -10.75651 z"
           id="path974" /></g></clipPath></defs><g
     id="layer1"
     transform="translate(-43.468835,-52.352741)"><rect
       style="opacity:1;fill:#000000;stroke-width:0.287999"
       id="rect402"
       width="37.462681"
       height="34.627346"
       x="71.339973"
       y="38.579414"
       clip-path="url(#clipPath414)"
       transform="matrix(3.1332628,0,0,3.1332628,-180.05805,-68.526703)" /></g></svg>
